<?xml version="1.0" encoding="UTF-8"?>
<!DOCTYPE svg PUBLIC "-//W3C//DTD SVG 1.1//EN" "http://www.w3.org/Graphics/SVG/1.1/DTD/svg11.dtd">
<svg xmlns="http://www.w3.org/2000/svg" version="1.1" width="164px" height="36px" style="shape-rendering:geometricPrecision; text-rendering:geometricPrecision; image-rendering:optimizeQuality; fill-rule:evenodd; clip-rule:evenodd" xmlns:xlink="http://www.w3.org/1999/xlink">
<g><path style="opacity:0.86" fill="#0b0b0b" d="M 143.5,35.5 C 140.5,35.5 137.5,35.5 134.5,35.5C 133.199,34.36 132.032,33.0267 131,31.5C 129.188,32.9771 127.355,34.3104 125.5,35.5C 121.5,35.5 117.5,35.5 113.5,35.5C 111.645,34.3104 109.812,32.9771 108,31.5C 106.603,33.0703 105.103,34.4036 103.5,35.5C 100.5,35.5 97.5,35.5 94.5,35.5C 93.8333,34.1667 93.1667,34.1667 92.5,35.5C 89.5,35.5 86.5,35.5 83.5,35.5C 82.548,34.548 81.548,33.548 80.5,32.5C 79.0986,33.5207 77.7653,34.5207 76.5,35.5C 70.1667,35.5 63.8333,35.5 57.5,35.5C 56.1667,34.1667 54.8333,34.1667 53.5,35.5C 50.5,35.5 47.5,35.5 44.5,35.5C 44.1667,34.1667 43.8333,34.1667 43.5,35.5C 41.5,35.5 39.5,35.5 37.5,35.5C 35.5522,34.8688 33.7189,33.8688 32,32.5C 30.8549,33.6364 29.6883,34.6364 28.5,35.5C 22.8333,35.5 17.1667,35.5 11.5,35.5C 6.5967,32.2238 6.26337,28.3905 10.5,24C 3.55763,16.0267 4.2243,8.6934 12.5,2C 17.8095,-0.264119 22.8095,0.235881 27.5,3.5C 29.879,1.95807 32.5457,1.2914 35.5,1.5C 44.4397,1.5455 53.4397,1.5455 62.5,1.5C 64.5,1.66667 66.5,1.83333 68.5,2C 69,2.5 69.5,3 70,3.5C 72.2604,1.5229 74.9271,0.522902 78,0.5C 86.8161,1.23119 95.6494,1.73119 104.5,2C 105.646,2.64494 106.646,3.47827 107.5,4.5C 116.559,-1.30327 125.059,-0.636599 133,6.5C 140.381,-1.03252 148.048,-1.36585 156,5.5C 159.333,11.1667 159.333,16.8333 156,22.5C 153.603,24.7823 150.769,26.1156 147.5,26.5C 148.342,30.6209 147.009,33.6209 143.5,35.5 Z M 118.5,17.5 C 120.337,17.6395 120.67,18.3061 119.5,19.5C 118.702,19.0431 118.369,18.3764 118.5,17.5 Z"/></g>
<g><path style="opacity:1" fill="#bdbed6" d="M 27.5,17.5 C 28.7982,10.3973 25.9649,6.39727 19,5.5C 12.0351,6.39727 9.20181,10.3973 10.5,17.5C 7.89314,9.73147 10.7265,5.0648 19,3.5C 27.2735,5.0648 30.1069,9.73147 27.5,17.5 Z"/></g>
<g><path style="opacity:1" fill="#283bee" d="M 27.5,17.5 C 26.2745,18.937 25.2745,20.6036 24.5,22.5C 25.6888,23.4287 27.0222,23.762 28.5,23.5C 28.5,25.8333 28.5,28.1667 28.5,30.5C 23.1254,30.8282 17.7921,30.4948 12.5,29.5C 13.4565,27.9246 14.1231,26.258 14.5,24.5C 17.5402,21.0864 19.5402,17.0864 20.5,12.5C 19.5,12.5 18.5,12.5 17.5,12.5C 17.6126,15.0488 16.9459,17.3821 15.5,19.5C 14.1916,20.6256 12.8583,20.6256 11.5,19.5C 11.6716,18.5084 11.3382,17.8417 10.5,17.5C 9.20181,10.3973 12.0351,6.39727 19,5.5C 25.9649,6.39727 28.7982,10.3973 27.5,17.5 Z"/></g>
<g><path style="opacity:1" fill="#a2a0d5" d="M 63.5,12.5 C 63.8769,10.742 64.5435,9.07536 65.5,7.5C 63.2351,6.35258 60.9018,6.18591 58.5,7C 57.8366,8.51845 56.8366,9.68512 55.5,10.5C 57.0017,4.80815 60.6684,2.97481 66.5,5C 67.0984,7.99275 66.0984,10.4927 63.5,12.5 Z"/></g>
<g><path style="opacity:1" fill="#2a3cee" d="M 78.5,13.5 C 77.1472,15.1284 77.4805,16.4617 79.5,17.5C 81.8538,26.8187 78.1871,31.4853 68.5,31.5C 67.612,28.9455 67.2786,26.2788 67.5,23.5C 68.8333,23.5 70.1667,23.5 71.5,23.5C 69.9253,19.3071 69.4253,14.9738 70,10.5C 72.2203,6.30755 75.7203,4.64088 80.5,5.5C 80.8685,8.53313 80.2018,11.1998 78.5,13.5 Z"/></g>
<g><path style="opacity:1" fill="#273aee" d="M 124.5,5.5 C 126.808,7.47073 129.142,9.47073 131.5,11.5C 133.905,27.9348 127.239,33.7681 111.5,29C 106.393,24.0018 105.227,18.1685 108,11.5C 112.169,6.05137 117.669,4.05137 124.5,5.5 Z M 118.5,17.5 C 118.369,18.3764 118.702,19.0431 119.5,19.5C 120.67,18.3061 120.337,17.6395 118.5,17.5 Z"/></g>
<g><path style="opacity:1" fill="#b3b4ca" d="M 124.5,5.5 C 128.055,6.05357 130.388,8.05357 131.5,11.5C 129.142,9.47073 126.808,7.47073 124.5,5.5 Z"/></g>
<g><path style="opacity:1" fill="#2138ee" d="M 149.5,5.5 C 153.294,8.99316 154.461,13.3265 153,18.5C 151.736,20.607 149.903,21.607 147.5,21.5C 146.5,21.5 145.5,21.5 144.5,21.5C 144.104,18.5178 144.771,15.8511 146.5,13.5C 145.349,12.269 144.183,12.269 143,13.5C 142.501,19.1569 142.334,24.8236 142.5,30.5C 140.167,30.5 137.833,30.5 135.5,30.5C 135.075,23.3846 135.575,16.3846 137,9.5C 140.387,5.96091 144.553,4.62758 149.5,5.5 Z"/></g>
<g><path style="opacity:1" fill="#8084e9" d="M 39.5,5.5 C 39.5,10.5 39.5,15.5 39.5,20.5C 38.5139,16.03 38.1805,11.3633 38.5,6.5C 36.5,6.5 34.5,6.5 32.5,6.5C 32.5,12.5 32.5,18.5 32.5,24.5C 31.5098,18.3554 31.1765,12.0221 31.5,5.5C 34.1667,4.16667 36.8333,4.16667 39.5,5.5 Z"/></g>
<g><path style="opacity:1" fill="#c8c8d0" d="M 31.5,5.5 C 31.1765,12.0221 31.5098,18.3554 32.5,24.5C 33.8436,29.5152 37.1769,31.5152 42.5,30.5C 42.5,28.1667 42.5,25.8333 42.5,23.5C 41.5,23.5 40.5,23.5 39.5,23.5C 39.5,22.5 39.5,21.5 39.5,20.5C 39.5,15.5 39.5,10.5 39.5,5.5C 40.4889,10.9753 40.8222,16.642 40.5,22.5C 41.5,22.5 42.5,22.5 43.5,22.5C 43.1778,16.642 43.5111,10.9753 44.5,5.5C 44.1739,14.0168 44.5073,22.3501 45.5,30.5C 47.8333,30.5 50.1667,30.5 52.5,30.5C 52.3343,26.1539 52.501,21.8206 53,17.5C 54.1356,20.0964 54.969,22.763 55.5,25.5C 54.7784,25.0825 54.2784,24.4158 54,23.5C 53.5026,26.146 53.3359,28.8127 53.5,31.5C 47.4908,31.6662 41.4908,31.4995 35.5,31C 33.1853,29.8906 31.6853,28.0573 31,25.5C 30.1794,18.6536 30.346,11.987 31.5,5.5 Z"/></g>
<g><path style="opacity:1" fill="#2037ee" d="M 39.5,20.5 C 39.5,21.5 39.5,22.5 39.5,23.5C 40.5,23.5 41.5,23.5 42.5,23.5C 42.5,25.8333 42.5,28.1667 42.5,30.5C 37.1769,31.5152 33.8436,29.5152 32.5,24.5C 32.5,18.5 32.5,12.5 32.5,6.5C 34.5,6.5 36.5,6.5 38.5,6.5C 38.1805,11.3633 38.5139,16.03 39.5,20.5 Z"/></g>
<g><path style="opacity:1" fill="#8285e9" d="M 52.5,5.5 C 52.5,5.83333 52.5,6.16667 52.5,6.5C 50.1667,6.5 47.8333,6.5 45.5,6.5C 45.5,14.5 45.5,22.5 45.5,30.5C 44.5073,22.3501 44.1739,14.0168 44.5,5.5C 47.1667,4.16667 49.8333,4.16667 52.5,5.5 Z"/></g>
<g><path style="opacity:1" fill="#2339ee" d="M 52.5,6.5 C 52.335,9.8499 52.5017,13.1832 53,16.5C 54.122,14.5932 54.9553,12.5932 55.5,10.5C 56.8366,9.68512 57.8366,8.51845 58.5,7C 60.9018,6.18591 63.2351,6.35258 65.5,7.5C 64.5435,9.07536 63.8769,10.742 63.5,12.5C 61.7573,13.6409 60.7573,15.3076 60.5,17.5C 62.0965,21.8596 64.0965,26.0263 66.5,30C 63.5184,30.498 60.5184,30.6646 57.5,30.5C 57.5979,28.4471 56.9313,26.7804 55.5,25.5C 54.969,22.763 54.1356,20.0964 53,17.5C 52.501,21.8206 52.3343,26.1539 52.5,30.5C 50.1667,30.5 47.8333,30.5 45.5,30.5C 45.5,22.5 45.5,14.5 45.5,6.5C 47.8333,6.5 50.1667,6.5 52.5,6.5 Z"/></g>
<g><path style="opacity:1" fill="#e1e1ef" d="M 52.5,5.5 C 53.3091,7.29221 53.8091,9.29221 54,11.5C 54.3826,10.944 54.8826,10.6107 55.5,10.5C 54.9553,12.5932 54.122,14.5932 53,16.5C 52.5017,13.1832 52.335,9.8499 52.5,6.5C 52.5,6.16667 52.5,5.83333 52.5,5.5 Z"/></g>
<g><path style="opacity:1" fill="#f3f3fa" d="M 84.5,5.5 C 84.5,5.83333 84.5,6.16667 84.5,6.5C 84.5,14.5 84.5,22.5 84.5,30.5C 87.1667,30.5 89.8333,30.5 92.5,30.5C 89.7131,31.4767 86.7131,31.81 83.5,31.5C 83.1736,22.6506 83.507,13.9839 84.5,5.5 Z"/></g>
<g><path style="opacity:1" fill="#2b3cee" d="M 84.5,6.5 C 86.8333,6.5 89.1667,6.5 91.5,6.5C 91.1936,9.38544 91.5269,12.0521 92.5,14.5C 93.7251,15.1522 94.3917,16.3189 94.5,18C 93.0438,22.0502 92.3771,26.2169 92.5,30.5C 89.8333,30.5 87.1667,30.5 84.5,30.5C 84.5,22.5 84.5,14.5 84.5,6.5 Z"/></g>
<g><path style="opacity:1" fill="#8a8be4" d="M 92.5,5.5 C 92.5,8.5 92.5,11.5 92.5,14.5C 91.5269,12.0521 91.1936,9.38544 91.5,6.5C 89.1667,6.5 86.8333,6.5 84.5,6.5C 84.5,6.16667 84.5,5.83333 84.5,5.5C 87.1667,4.16667 89.8333,4.16667 92.5,5.5 Z"/></g>
<g><path style="opacity:1" fill="#d0d2e8" d="M 92.5,5.5 C 93.3171,7.96864 93.8171,10.6353 94,13.5C 94.1829,10.6353 94.6829,7.96864 95.5,5.5C 95.5,5.83333 95.5,6.16667 95.5,6.5C 95.5,14.5 95.5,22.5 95.5,30.5C 97.8333,30.5 100.167,30.5 102.5,30.5C 102.833,30.5 103.167,30.5 103.5,30.5C 100.713,31.4767 97.7131,31.81 94.5,31.5C 94.6646,28.4816 94.498,25.4816 94,22.5C 93.8171,25.3647 93.3171,28.0314 92.5,30.5C 92.3771,26.2169 93.0438,22.0502 94.5,18C 94.3917,16.3189 93.7251,15.1522 92.5,14.5C 92.5,11.5 92.5,8.5 92.5,5.5 Z"/></g>
<g><path style="opacity:1" fill="#1f36ee" d="M 95.5,6.5 C 97.8333,6.5 100.167,6.5 102.5,6.5C 102.5,14.5 102.5,22.5 102.5,30.5C 100.167,30.5 97.8333,30.5 95.5,30.5C 95.5,22.5 95.5,14.5 95.5,6.5 Z"/></g>
<g><path style="opacity:1" fill="#9b9ccc" d="M 103.5,30.5 C 103.167,30.5 102.833,30.5 102.5,30.5C 102.5,22.5 102.5,14.5 102.5,6.5C 100.167,6.5 97.8333,6.5 95.5,6.5C 95.5,6.16667 95.5,5.83333 95.5,5.5C 98.2301,4.18344 101.063,4.18344 104,5.5C 104.823,14.0104 104.657,22.3437 103.5,30.5 Z"/></g>
<g><path style="opacity:1" fill="#b5b6d2" d="M 78.5,13.5 C 80.2018,11.1998 80.8685,8.53313 80.5,5.5C 75.7203,4.64088 72.2203,6.30755 70,10.5C 69.4253,14.9738 69.9253,19.3071 71.5,23.5C 70.1667,23.5 68.8333,23.5 67.5,23.5C 68.3984,22.8423 69.3984,22.1757 70.5,21.5C 67.5702,16.0567 67.9036,10.8901 71.5,6C 80.1244,1.1189 83.791,3.6189 82.5,13.5C 81.1667,13.5 79.8333,13.5 78.5,13.5 Z"/></g>
<g><path style="opacity:1" fill="#dadaea" d="M 149.5,5.5 C 144.553,4.62758 140.387,5.96091 137,9.5C 135.575,16.3846 135.075,23.3846 135.5,30.5C 137.833,30.5 140.167,30.5 142.5,30.5C 142.833,30.5 143.167,30.5 143.5,30.5C 140.713,31.4767 137.713,31.81 134.5,31.5C 134.068,23.7208 134.568,16.0542 136,8.5C 139.886,3.58941 144.386,2.58941 149.5,5.5 Z"/></g>
<g><path style="opacity:1" fill="#c0c0de" d="M 14.5,24.5 C 13.759,22.6458 12.759,20.9791 11.5,19.5C 12.8583,20.6256 14.1916,20.6256 15.5,19.5C 16.9459,17.3821 17.6126,15.0488 17.5,12.5C 18.5,12.5 19.5,12.5 20.5,12.5C 19.5402,17.0864 17.5402,21.0864 14.5,24.5 Z"/></g>
<g><path style="opacity:1" fill="#a6a9eb" d="M 147.5,21.5 C 146.432,22.4345 145.099,22.7678 143.5,22.5C 143.5,25.1667 143.5,27.8333 143.5,30.5C 143.167,30.5 142.833,30.5 142.5,30.5C 142.334,24.8236 142.501,19.1569 143,13.5C 144.183,12.269 145.349,12.269 146.5,13.5C 144.771,15.8511 144.104,18.5178 144.5,21.5C 145.5,21.5 146.5,21.5 147.5,21.5 Z"/></g>
<g><path style="opacity:1" fill="#c2c2da" d="M 63.5,12.5 C 63.1231,14.258 62.4565,15.9246 61.5,17.5C 63,20.5 64.5,23.5 66,26.5C 66.2321,25.2625 66.7321,24.2625 67.5,23.5C 67.2786,26.2788 67.612,28.9455 68.5,31.5C 64.6286,31.815 60.9619,31.4816 57.5,30.5C 60.5184,30.6646 63.5184,30.498 66.5,30C 64.0965,26.0263 62.0965,21.8596 60.5,17.5C 60.7573,15.3076 61.7573,13.6409 63.5,12.5 Z"/></g>
<g><path style="opacity:1" fill="#c6c7ea" d="M 78.5,13.5 C 78.8333,14.8333 79.1667,16.1667 79.5,17.5C 77.4805,16.4617 77.1472,15.1284 78.5,13.5 Z"/></g>
<g><path style="opacity:1" fill="#a1a0b7" d="M 149.5,5.5 C 154.475,7.88222 156.309,11.8822 155,17.5C 152.921,21.9571 149.421,23.9571 144.5,23.5C 144.802,26.0593 144.468,28.3926 143.5,30.5C 143.5,27.8333 143.5,25.1667 143.5,22.5C 145.099,22.7678 146.432,22.4345 147.5,21.5C 149.903,21.607 151.736,20.607 153,18.5C 154.461,13.3265 153.294,8.99316 149.5,5.5 Z"/></g>
<g><path style="opacity:1" fill="#d5d5dd" d="M 27.5,17.5 C 27.5792,18.9305 27.2458,20.2638 26.5,21.5C 27.2427,22.1818 27.9094,22.8485 28.5,23.5C 27.0222,23.762 25.6888,23.4287 24.5,22.5C 25.2745,20.6036 26.2745,18.937 27.5,17.5 Z"/></g>
<g><path style="opacity:1" fill="#b8b8cc" d="M 124.5,5.5 C 117.669,4.05137 112.169,6.05137 108,11.5C 105.227,18.1685 106.393,24.0018 111.5,29C 127.239,33.7681 133.905,27.9348 131.5,11.5C 134.693,18.2128 133.693,24.3795 128.5,30C 118.782,34.9962 111.282,32.8296 106,23.5C 103.358,13.6143 106.858,7.11432 116.5,4C 119.482,3.29714 122.149,3.79714 124.5,5.5 Z M 118.5,17.5 C 118.369,18.3764 118.702,19.0431 119.5,19.5C 120.67,18.3061 120.337,17.6395 118.5,17.5 Z"/></g>
<g><path style="opacity:1" fill="#b2b2c7" d="M 117.5,12.5 C 124.03,12.2435 126.197,15.2435 124,21.5C 117.826,25.2633 114.493,23.5966 114,16.5C 114.69,14.6498 115.856,13.3164 117.5,12.5 Z M 118.5,17.5 C 118.369,18.3764 118.702,19.0431 119.5,19.5C 120.67,18.3061 120.337,17.6395 118.5,17.5 Z"/></g>
<g><path style="opacity:0.934" fill="#050505" d="M 116.5,14.5 C 123.536,13.6026 125.203,16.1026 121.5,22C 115.785,22.401 114.119,19.901 116.5,14.5 Z M 118.5,17.5 C 118.369,18.3764 118.702,19.0431 119.5,19.5C 120.67,18.3061 120.337,17.6395 118.5,17.5 Z"/></g>
<g><path style="opacity:1" fill="#cacae9" d="M 55.5,25.5 C 56.9313,26.7804 57.5979,28.4471 57.5,30.5C 56.0687,29.2196 55.4021,27.5529 55.5,25.5 Z"/></g>
<g><path style="opacity:1" fill="#d0d2f1" d="M 14.5,24.5 C 14.1231,26.258 13.4565,27.9246 12.5,29.5C 17.7921,30.4948 23.1254,30.8282 28.5,30.5C 23.0247,31.4889 17.358,31.8222 11.5,31.5C 11.1663,28.509 12.1663,26.1757 14.5,24.5 Z"/></g>
<g><path style="opacity:1" fill="#bbbacb" d="M 79.5,17.5 C 83.2361,24.1281 81.5694,28.9614 74.5,32C 72.2884,32.7891 70.2884,32.6225 68.5,31.5C 78.1871,31.4853 81.8538,26.8187 79.5,17.5 Z"/></g>
</svg>
