<svg width="39" height="36" viewBox="0 0 39 36" fill="none" xmlns="http://www.w3.org/2000/svg">
<g clip-path="url(#clip0_57_43)">
<path d="M5.2775 27.214C6.69194 28.2318 8.9852 28.2318 10.3997 27.214C11.8141 26.1963 11.8141 24.5462 10.3997 23.5284C8.9852 22.5106 6.69194 22.5106 5.2775 23.5284C3.86306 24.5462 3.86306 26.1963 5.2775 27.214Z" fill="#046C4E"/>
<path d="M19.9581 13.3931C22.0798 14.9196 25.5197 14.9196 27.6414 13.3931C29.763 11.8664 29.763 9.39125 27.6414 7.86464C25.5197 6.33801 22.0798 6.33801 19.9581 7.86464C17.8365 9.39125 17.8365 11.8664 19.9581 13.3931Z" fill="#046C4E"/>
<path d="M12.1651 20.3035C13.9331 21.5756 16.7997 21.5756 18.5677 20.3035C20.3358 19.0313 20.3358 16.9687 18.5677 15.6965C16.7997 14.4243 13.9331 14.4243 12.1651 15.6965C10.397 16.9687 10.397 19.0313 12.1651 20.3035Z" fill="#046C4E"/>
<path d="M0.795623 19.3821C1.85645 20.1454 3.5764 20.1454 4.63723 19.3821C5.69806 18.6188 5.69806 17.3813 4.63723 16.6179C3.5764 15.8546 1.85645 15.8546 0.795623 16.6179C-0.265208 17.3813 -0.265207 18.6188 0.795623 19.3821Z" fill="#046C4E"/>
<path d="M12.1651 5.56113C13.9331 6.83331 16.7997 6.83331 18.5677 5.56113C20.3358 4.28894 20.3358 2.22632 18.5677 0.954141C16.7997 -0.318047 13.9331 -0.318048 12.1651 0.954141C10.397 2.22632 10.397 4.28894 12.1651 5.56113Z" fill="#046C4E"/>
<path d="M5.2775 12.4716C6.69194 13.4894 8.98521 13.4894 10.3997 12.4716C11.8141 11.4539 11.8141 9.80373 10.3997 8.78602C8.98521 7.76827 6.69194 7.76827 5.2775 8.78602C3.86306 9.80373 3.86307 11.4539 5.2775 12.4716Z" fill="#046C4E"/>
<path d="M12.1651 35.0459C13.9331 36.318 16.7997 36.318 18.5677 35.0459C20.3358 33.7737 20.3358 31.7111 18.5677 30.4388C16.7997 29.1667 13.9331 29.1667 12.1651 30.4388C10.397 31.7111 10.397 33.7737 12.1651 35.0459Z" fill="#046C4E"/>
<path d="M29.2969 20.7642C31.4186 22.2908 34.8586 22.2908 36.9802 20.7642C39.1019 19.2376 39.1019 16.7624 36.9802 15.2358C34.8586 13.7091 31.4186 13.7091 29.2969 15.2358C27.1753 16.7624 27.1753 19.2376 29.2969 20.7642Z" fill="#046C4E"/>
<path d="M19.9581 28.1353C22.0798 29.662 25.5197 29.662 27.6414 28.1353C29.763 26.6088 29.763 24.1337 27.6414 22.607C25.5197 21.0804 22.0798 21.0804 19.9581 22.607C17.8365 24.1337 17.8365 26.6088 19.9581 28.1353Z" fill="#046C4E"/>
</g>
<defs>
<clipPath id="clip0_57_43">
<rect width="38.5714" height="36" fill="white"/>
</clipPath>
</defs>
</svg>
